<svg id="Layer_1" data-name="Layer 1" xmlns="http://www.w3.org/2000/svg" width="98" height="56.93" viewBox="0 0 98 56.93"><defs><style>.cls-1{fill:#333;}.cls-2{fill:#2aaeba;}.cls-3{isolation:isolate;}.cls-4{fill:#fff;}</style></defs><path class="cls-1" d="M0,20V38.08a9,9,0,0,0,4.84,8L23.7,55.9a9,9,0,0,0,8.32,0l18.86-9.82a9,9,0,0,0,4.84-8V20a9,9,0,0,0-4.84-8L32,2.14a9,9,0,0,0-8.32,0L4.84,12A9,9,0,0,0,0,20Z" transform="translate(0 0.01)"/><path class="cls-2" d="M42.27,18.83V37a9,9,0,0,0,4.84,8L66,54.8a9,9,0,0,0,8.32,0L93.15,45A9,9,0,0,0,98,37V18.83a9,9,0,0,0-4.85-8L74.29,1A9.05,9.05,0,0,0,66,1L47.11,10.83A9,9,0,0,0,42.27,18.83Z" transform="translate(0 0.01)"/><g class="cls-3"><path class="cls-4" d="M16.45,40.45v-24H26.83A16.3,16.3,0,0,1,31.2,17a5.88,5.88,0,0,1,3,2.05,5.66,5.66,0,0,1,1.27,3.68,5.06,5.06,0,0,1-1.29,3.45A5.87,5.87,0,0,1,30.63,28a7,7,0,0,1,4.26,2.06,5.58,5.58,0,0,1,1.44,3.83,6.12,6.12,0,0,1-2,4.67q-2,1.89-6.21,1.89ZM21,26.53h5.86a4,4,0,0,0,2.84-1,3.21,3.21,0,0,0,1-2.46,2.71,2.71,0,0,0-1.19-2.43,4.89,4.89,0,0,0-2.79-.79H21Zm0,10.32H27.2a4.79,4.79,0,0,0,3.11-.93,3.29,3.29,0,0,0,0-5,4.66,4.66,0,0,0-3.07-1H21Z" transform="translate(0 0.01)"/></g><g class="cls-3"><path class="cls-4" d="M52,34.67l4.66-.9q.84,3.57,6.44,3.57A7.09,7.09,0,0,0,67,36.42a2.65,2.65,0,0,0,1.38-2.26,2.94,2.94,0,0,0-.63-1.82A4.59,4.59,0,0,0,65.08,31L60,29.83a13.48,13.48,0,0,1-3.87-1.39,5.72,5.72,0,0,1-2-2.21,6.42,6.42,0,0,1-.75-3A6.08,6.08,0,0,1,56,18a11.13,11.13,0,0,1,6.78-1.94A13.55,13.55,0,0,1,69,17.44a6.3,6.3,0,0,1,3.45,3.83l-4.57,1q-1-2.71-4.92-2.72a5.87,5.87,0,0,0-3.42.84,2.54,2.54,0,0,0-1.18,2.15c0,1.37,1.23,2.33,3.71,2.88l4.52,1q4.13.93,5.52,2.75a6.6,6.6,0,0,1-1.55,9.58,13.28,13.28,0,0,1-7.66,2,15.31,15.31,0,0,1-6.93-1.49A7.48,7.48,0,0,1,52,34.67Z" transform="translate(0 0.01)"/><path class="cls-4" d="M86.83,16.46V33q0,4.14-2,6t-6.31,1.84a15.63,15.63,0,0,1-3.88-.37V37c1.46.09,2.48.14,3.08.14A4.94,4.94,0,0,0,81,36.3c.59-.54.88-1.63.88-3.29V16.46Z" transform="translate(0 0.01)"/></g></svg>
