<svg id="Layer_1" data-name="Layer 1" xmlns="http://www.w3.org/2000/svg" width="98" height="60.72" viewBox="0 0 98 60.72"><defs><style>.cls-1{fill:#333;}.cls-2{fill:#80ffdb;}.cls-3{font-size:36px;fill:#fff;font-family:FranklinGothic-Medium, Franklin Gothic Medium;font-weight:500;}</style></defs><path class="cls-1" d="M84.37,254v18.11a9,9,0,0,0,4.84,8l18.86,9.82a9,9,0,0,0,8.32,0l18.86-9.82a9,9,0,0,0,4.84-8V254a9,9,0,0,0-4.84-8l-18.86-9.83a9,9,0,0,0-8.32,0L89.21,246A9,9,0,0,0,84.37,254Z" transform="translate(-84.37 -234.03)"/><path class="cls-2" d="M126.64,252.86V271a9,9,0,0,0,4.84,8l18.86,9.83a9,9,0,0,0,8.32,0L177.52,279a9,9,0,0,0,4.85-8V252.86a9,9,0,0,0-4.85-8l-18.86-9.83a9.05,9.05,0,0,0-8.32,0l-18.86,9.83A9,9,0,0,0,126.64,252.86Z" transform="translate(-84.37 -234.03)"/><text class="cls-3" transform="translate(13.52 40.45) scale(1.11 1)">B</text><text x="-84.37" y="-234.03"/><text class="cls-3" transform="translate(51.83 40.45) scale(1.11 1)">SJ</text></svg>